<svg xmlns="http://www.w3.org/2000/svg" width="24" height="24" viewBox="0 0 24 24"><g transform="translate(-19 -192)"><g transform="translate(19 190.683)"><circle cx="8" cy="8" r="8" transform="translate(4 5.317)" fill="#fff"/><g transform="translate(0 1.317)"><g transform="translate(0 0)"><path d="M24,11.925a.711.711,0,0,0-.276-.492l-1.9-1.447.692-2.294a.711.711,0,0,0-.516-.9l-2.323-.545-.3-2.379a.711.711,0,0,0-.286-.486.7.7,0,0,0-.549-.123L16.2,3.712,14.966,1.66a.7.7,0,0,0-1.009-.216L12,2.815l-1.957-1.37a.7.7,0,0,0-1.009.216L7.8,3.712,5.459,3.26a.707.707,0,0,0-.834.609l-.3,2.379-2.323.545a.711.711,0,0,0-.516.9l.692,2.294L.28,11.433a.713.713,0,0,0-.108,1.031l1.56,1.813-1.151,2.1a.712.712,0,0,0,.319.986l2.159,1.018-.2,2.389a.709.709,0,0,0,.69.771l2.385.048.782,2.265a.706.706,0,0,0,.942.422l2.2-.931,1.631,1.749a.7.7,0,0,0,1.031,0l1.631-1.749,2.2.931a.706.706,0,0,0,.942-.422l.782-2.265,2.384-.048a.705.705,0,0,0,.511-.235.713.713,0,0,0,.179-.536l-.2-2.389L23.1,17.363a.712.712,0,0,0,.319-.986l-1.151-2.1,1.56-1.813A.713.713,0,0,0,24,11.925Zm-12,8.19a6.8,6.8,0,1,1,6.763-6.8A6.788,6.788,0,0,1,12,20.115Z" transform="translate(0 -1.317)"/></g></g><g transform="translate(6.648 7.965)"><path d="M147.229,141.877a5.352,5.352,0,1,0,5.352,5.352A5.358,5.358,0,0,0,147.229,141.877ZM150,146.214l-3.029,3.029a.707.707,0,0,1-1,0l-1.515-1.515a.707.707,0,0,1,1-1l1.015,1.015,2.53-2.529a.707.707,0,1,1,1,1Z" transform="translate(-141.877 -141.877)"/></g></g></g></svg>